<svg width="20" height="20" viewBox="0 0 20 20" fill="none" xmlns="http://www.w3.org/2000/svg">
<path d="M16.6666 18.3333H14.9999V16.6667C14.9999 15.2859 13.8807 14.1667 12.4999 14.1667H7.49992C6.11921 14.1667 4.99992 15.2859 4.99992 16.6667V18.3333H3.33325V16.6667C3.33325 14.3655 5.19874 12.5 7.49992 12.5H12.4999C14.8011 12.5 16.6666 14.3655 16.6666 16.6667V18.3333ZM9.99992 10.8333C7.23849 10.8333 4.99992 8.59476 4.99992 5.83334C4.99992 3.07192 7.23849 0.833344 9.99992 0.833344C12.7613 0.833344 14.9999 3.07192 14.9999 5.83334C14.9999 8.59476 12.7613 10.8333 9.99992 10.8333ZM9.99992 9.16668C11.8408 9.16668 13.3333 7.67429 13.3333 5.83334C13.3333 3.99239 11.8408 2.50001 9.99992 2.50001C8.15897 2.50001 6.66658 3.99239 6.66658 5.83334C6.66658 7.67429 8.15897 9.16668 9.99992 9.16668Z" fill="url(#paint0_linear_141_168)"/>
<defs>
<linearGradient id="paint0_linear_141_168" x1="16.6666" y1="18.3333" x2="3.33325" y2="18.3333" gradientUnits="userSpaceOnUse">
<stop stop-color="#22C55E"/>
<stop offset="0.572917" stop-color="#0EA5E9"/>
<stop offset="1" stop-color="#6366F1"/>
</linearGradient>
</defs>
</svg>
