<svg width="20" height="20" viewBox="0 0 20 20" fill="none" xmlns="http://www.w3.org/2000/svg">
<path d="M16.6666 18.3334H15V16.6667C15 15.286 13.8807 14.1667 12.5 14.1667H7.49998C6.11927 14.1667 4.99998 15.286 4.99998 16.6667V18.3334H3.33331V16.6667C3.33331 14.3655 5.1988 12.5 7.49998 12.5H12.5C14.8011 12.5 16.6666 14.3655 16.6666 16.6667V18.3334ZM9.99998 10.8334C7.23855 10.8334 4.99998 8.59479 4.99998 5.83337C4.99998 3.07195 7.23855 0.833374 9.99998 0.833374C12.7614 0.833374 15 3.07195 15 5.83337C15 8.59479 12.7614 10.8334 9.99998 10.8334ZM9.99998 9.16671C11.8409 9.16671 13.3333 7.67432 13.3333 5.83337C13.3333 3.99242 11.8409 2.50004 9.99998 2.50004C8.15903 2.50004 6.66665 3.99242 6.66665 5.83337C6.66665 7.67432 8.15903 9.16671 9.99998 9.16671Z" fill="white"/>
</svg>
